<?xml version="1.0" encoding="UTF-8"?><svg id="Camada_2" xmlns="http://www.w3.org/2000/svg" viewBox="0 0 54.61 37.4"><g id="Camada_1-2"><g id="Outline_Expand"><path d="M53.43,0H1.19C.53,0,0,.53,0,1.19v35.02c0,.66.53,1.19,1.19,1.19h52.24c.66,0,1.19-.53,1.19-1.19V1.19c0-.66-.53-1.19-1.19-1.19ZM50.17,2.37l-18.28,15.37c-2.66,2.23-6.51,2.23-9.17,0L4.44,2.37h45.73ZM52.24,33.8l-15.9-12.19c-.52-.4-1.26-.3-1.66.22-.4.52-.3,1.27.22,1.66l15.03,11.52H4.69l15.03-11.52c.52-.4.62-1.14.22-1.66-.4-.52-1.14-.62-1.66-.22l-15.9,12.19V3.74l18.82,15.83c3.5,2.94,8.73,2.94,12.23,0L52.24,3.74v30.07Z"/></g></g></svg>