<?xml version="1.0" encoding="UTF-8"?><svg id="Camada_2" xmlns="http://www.w3.org/2000/svg" viewBox="0 0 53.58 53.58"><g id="Camada_1-2"><path d="M40.16,53.58H13.41c-7.4,0-13.41-6.01-13.41-13.41V13.41C0,6.01,6.01,0,13.41,0h26.75c7.4,0,13.41,6.01,13.41,13.41v26.75c0,7.4-6.01,13.41-13.41,13.41ZM13.41,2.22c-6.18,0-11.18,5.01-11.19,11.19v26.75c0,6.18,5.01,11.18,11.19,11.19h26.75c6.18,0,11.18-5.01,11.19-11.19V13.41c0-6.18-5.01-11.18-11.19-11.19H13.41Z"/><path d="M26.79,40.49c-7.57,0-13.7-6.13-13.7-13.7s6.13-13.7,13.7-13.7,13.7,6.13,13.7,13.7c0,7.56-6.14,13.69-13.7,13.7ZM26.79,15.31c-6.34,0-11.47,5.14-11.48,11.47,0,6.34,5.14,11.47,11.47,11.48,6.34,0,11.47-5.14,11.48-11.47h0c0-6.33-5.14-11.47-11.47-11.48h0Z"/><path d="M40.98,15.27c-2.2,0-3.99-1.79-3.99-3.99,0-2.2,1.79-3.99,3.99-3.99,2.2,0,3.99,1.79,3.99,3.99,0,2.2-1.79,3.99-3.99,3.99ZM40.98,9.52c-.97,0-1.76.79-1.76,1.76s.79,1.76,1.76,1.76,1.76-.79,1.76-1.76c0-.97-.79-1.76-1.76-1.76h0Z"/></g></svg>