<?xml version="1.0" encoding="UTF-8"?><svg id="Camada_2" xmlns="http://www.w3.org/2000/svg" viewBox="0 0 52 52"><g id="Camada_1-2"><path d="M26,0C11.66,0,0,11.66,0,26c0,4.89,1.36,9.64,3.94,13.76-1.03,3.6-2.88,10.4-2.9,10.47-.1.35,0,.73.27.98s.64.34.99.24l10.31-3.17c4.04,2.43,8.66,3.72,13.4,3.72,14.34,0,26-11.66,26-26S40.34,0,26,0ZM26,50c-4.52,0-8.92-1.26-12.73-3.65-.16-.1-.35-.15-.53-.15-.1,0-.2.01-.29.04l-9,2.77c.66-2.41,1.85-6.73,2.54-9.13.08-.28.03-.58-.12-.82-2.53-3.89-3.86-8.4-3.86-13.06C2,12.77,12.77,2,26,2s24,10.77,24,24-10.77,24-24,24Z"/><path d="M42.99,32.13c-1.85-1.02-3.42-2.05-4.56-2.8-.88-.57-1.51-.99-1.97-1.22-1.3-.65-2.28-.19-2.65.19-.05.05-.09.1-.12.15-1.35,2.02-3.11,3.95-3.62,4.06-.59-.09-3.38-1.68-6.15-3.98-2.83-2.35-4.6-4.61-4.86-6.15,1.81-1.87,2.47-3.04,2.47-4.38s-3.21-7.13-3.79-7.71c-.58-.58-1.9-.67-3.9-.27-.19.04-.37.13-.51.27-.24.24-5.93,6.04-3.23,13.07,2.97,7.71,10.58,16.67,20.29,18.13,1.1.17,2.14.25,3.1.25,5.71,0,9.08-2.87,10.03-8.57.07-.42-.13-.83-.5-1.04ZM30.65,39.51c-10.26-1.54-16.73-11.71-18.72-16.87-1.97-5.12,1.66-9.69,2.57-10.72.74-.13,1.52-.18,1.85-.13.68.95,3.04,5.4,3.14,6.2,0,.52-.17,1.26-2.21,3.29-.19.19-.29.44-.29.71,0,5.24,11.04,12.5,13,12.5,1.7,0,3.92-2.86,5.18-4.72.07,0,.2.03.37.12.36.18.98.59,1.77,1.1,1.04.68,2.43,1.59,4.06,2.52-.74,3.57-2.82,7.18-10.74,5.99Z"/></g></svg>